# xmcd
#
# Track frame offsets:
#  150
#  16690
#  30347
#  42945
#  57397
#  71690
#  87002
#  102752
#  122982
#  139720
#  156527
#  173512
#  188397
#
# Disc length: 2711 seconds
#
# Revision: 0
# Processed by: cddbd v1.5.1PL2 Copyright (c) Steve Scherf et al.
# Submitted via: Collectorz.com_Music_Collector 6.10
#
DISCID=9d0a950d
DTITLE=Aaron Tippin - Greatest Hits...& Then Some
DYEAR=1997
DGENRE=Country
TTITLE0=Cold Gray Kentucky Morning
TTITLE1=You've Got To Stand For Something
TTITLE2=There Ain't Nothin' Wrong With The Radio
TTITLE3=I Wouldn't Have It Any Other Way
TTITLE4=A Door
TTITLE5=My Blue Angel
TTITLE6=Working Man's Ph.D
TTITLE7=The Call Of The Wild
TTITLE8=That's What Happens When I Hold You
TTITLE9=Whole Lotta Love On The Line
TTITLE10=I Got It Honest
TTITLE11=That's As Close As I'll Get To Loving You
TTITLE12=If Only Your Eyes Could Lie
EXTD=
EXTT0=
EXTT1=
EXTT2=
EXTT3=
EXTT4=
EXTT5=
EXTT6=
EXTT7=
EXTT8=
EXTT9=
EXTT10=
EXTT11=
EXTT12=
PLAYORDER=
